<svg width="319" height="400" viewBox="0 0 319 400" fill="none" xmlns="http://www.w3.org/2000/svg">
<path d="M166.854 18.6411C166.854 0.0473722 143.178 -6.96043 132.749 8.45361C37.0787 149.883 173.034 156.25 173.034 225C173.034 252.836 150.547 275.36 122.939 274.992C95.7711 274.641 74.1573 251.735 74.1573 224.258V157.453C74.1573 140.5 53.71 132.274 42.1538 144.563C21.4747 166.532 0 204.164 0 250C0 332.711 66.533 400 148.315 400C230.096 400 296.629 332.711 296.629 250C296.629 116.961 166.854 99.2191 166.854 18.6411V18.6411Z" fill="url(#paint0_linear)"/>
<path d="M188.427 18.6411C188.427 0.0473722 164.751 -6.96043 154.322 8.45361C58.6517 149.883 194.607 156.25 194.607 225C194.607 252.836 172.12 275.36 144.512 274.992C117.344 274.641 95.7304 251.735 95.7304 224.258V157.453C95.7304 140.5 75.283 132.274 63.7269 144.563C43.0478 166.532 21.5731 204.164 21.5731 250C21.5731 332.711 88.1061 400 169.888 400C251.669 400 318.202 332.711 318.202 250C318.202 116.961 188.427 99.2191 188.427 18.6411V18.6411Z" fill="url(#paint1_linear)"/>
<defs>
<linearGradient id="paint0_linear" x1="148.315" y1="0" x2="148.315" y2="400" gradientUnits="userSpaceOnUse">
<stop stop-color="#6F42C1"/>
<stop offset="1" stop-color="#AD00FF"/>
</linearGradient>
<linearGradient id="paint1_linear" x1="169.888" y1="0" x2="169.888" y2="400" gradientUnits="userSpaceOnUse">
<stop stop-color="#6F42C1" stop-opacity="0.4"/>
<stop offset="1" stop-color="#EB00FF" stop-opacity="0.4"/>
</linearGradient>
</defs>
</svg>
